<?xml version="1.0" encoding="UTF-8"?>
<svg xmlns="http://www.w3.org/2000/svg" xmlns:xlink="http://www.w3.org/1999/xlink" width="32px" height="32px" viewBox="0 0 32 32" version="1.1">
<g id="surface1">
<path style=" stroke:none;fill-rule:nonzero;fill:rgb(58.431375%,95.294118%,89.803922%);fill-opacity:1;" d="M 15.257812 1.984375 C 15.335938 1.984375 15.335938 1.984375 15.417969 1.984375 C 17.007812 1.96875 18.457031 2.070312 19.984375 2.539062 C 20.507812 2.691406 21.003906 2.734375 21.546875 2.726562 C 22.125 2.726562 22.667969 2.863281 23.09375 3.269531 C 23.292969 3.496094 23.457031 3.742188 23.546875 4.03125 C 23.652344 4.246094 23.792969 4.324219 23.996094 4.453125 C 24.070312 4.503906 24.144531 4.550781 24.21875 4.601562 C 24.253906 4.625 24.292969 4.648438 24.328125 4.675781 C 25.449219 5.449219 26.441406 6.472656 27.25 7.5625 C 27.277344 7.597656 27.304688 7.632812 27.332031 7.667969 C 27.785156 8.265625 28.15625 8.898438 28.5 9.5625 C 28.523438 9.609375 28.550781 9.65625 28.574219 9.703125 C 29.21875 10.957031 29.636719 12.300781 29.875 13.6875 C 29.886719 13.753906 29.898438 13.824219 29.910156 13.890625 C 30.007812 14.519531 30.019531 15.136719 30.019531 15.773438 C 30.019531 15.945312 30.019531 16.117188 30.023438 16.289062 C 30.027344 17.347656 29.898438 18.382812 29.640625 19.414062 C 29.625 19.480469 29.609375 19.546875 29.589844 19.613281 C 29.191406 21.179688 28.5 22.683594 27.5625 24 C 27.515625 24.066406 27.46875 24.132812 27.421875 24.199219 C 26.644531 25.265625 25.738281 26.261719 24.6875 27.0625 C 24.652344 27.089844 24.621094 27.113281 24.585938 27.140625 C 22.125 29.054688 19.125 30.03125 16.023438 30.019531 C 15.964844 30.019531 15.90625 30.019531 15.847656 30.019531 C 14.992188 30.015625 14.152344 29.996094 13.3125 29.8125 C 13.222656 29.792969 13.222656 29.792969 13.128906 29.773438 C 10.808594 29.265625 8.675781 28.242188 6.875 26.6875 C 6.816406 26.640625 6.761719 26.589844 6.703125 26.539062 C 6.546875 26.40625 6.398438 26.265625 6.25 26.125 C 6.21875 26.097656 6.1875 26.066406 6.15625 26.035156 C 5.632812 25.539062 5.179688 25.015625 4.75 24.4375 C 4.722656 24.402344 4.695312 24.367188 4.667969 24.332031 C 4.214844 23.734375 3.84375 23.101562 3.5 22.4375 C 3.464844 22.367188 3.464844 22.367188 3.425781 22.296875 C 2.417969 20.339844 1.972656 18.210938 1.980469 16.019531 C 1.980469 15.960938 1.980469 15.902344 1.980469 15.84375 C 1.984375 15.007812 2.007812 14.195312 2.1875 13.375 C 2.199219 13.3125 2.214844 13.253906 2.226562 13.191406 C 2.722656 10.839844 3.738281 8.695312 5.3125 6.875 C 5.359375 6.816406 5.410156 6.761719 5.460938 6.703125 C 5.59375 6.546875 5.734375 6.398438 5.875 6.25 C 5.902344 6.21875 5.933594 6.1875 5.964844 6.15625 C 6.519531 5.574219 7.109375 5.039062 7.789062 4.605469 C 8.183594 4.347656 8.445312 4.148438 8.628906 3.707031 C 8.792969 3.308594 9.121094 3.054688 9.5 2.875 C 9.820312 2.757812 10.101562 2.738281 10.441406 2.734375 C 11.085938 2.730469 11.648438 2.65625 12.261719 2.460938 C 12.664062 2.332031 13.066406 2.242188 13.484375 2.167969 C 13.539062 2.15625 13.597656 2.148438 13.652344 2.136719 C 14.1875 2.046875 14.714844 1.992188 15.257812 1.984375 Z M 15.257812 1.984375 "/>
<path style=" stroke:none;fill-rule:nonzero;fill:rgb(99.607843%,84.705883%,43.137255%);fill-opacity:1;" d="M 8.382812 7.351562 C 8.429688 7.351562 8.472656 7.347656 8.519531 7.347656 C 8.941406 7.332031 9.359375 7.324219 9.78125 7.316406 C 10.0625 7.3125 10.34375 7.308594 10.625 7.296875 C 12.691406 7.21875 12.691406 7.21875 13.273438 7.714844 C 13.433594 7.878906 13.578125 8.054688 13.710938 8.242188 C 13.949219 8.554688 14.246094 8.824219 14.546875 9.078125 C 14.808594 9.300781 15.046875 9.542969 15.289062 9.789062 C 15.316406 9.820312 15.347656 9.851562 15.378906 9.882812 C 15.40625 9.910156 15.433594 9.9375 15.460938 9.964844 C 15.492188 9.996094 15.527344 10.03125 15.5625 10.0625 C 15.636719 10.140625 15.636719 10.140625 15.710938 10.222656 C 15.996094 10.457031 16.324219 10.417969 16.679688 10.417969 C 16.753906 10.417969 16.828125 10.417969 16.90625 10.417969 C 17.109375 10.417969 17.3125 10.417969 17.515625 10.417969 C 17.726562 10.417969 17.941406 10.421875 18.152344 10.421875 C 18.554688 10.425781 18.957031 10.425781 19.359375 10.425781 C 19.820312 10.425781 20.277344 10.425781 20.734375 10.429688 C 21.679688 10.433594 22.621094 10.4375 23.5625 10.4375 C 23.5625 9.425781 23.5625 8.417969 23.5625 7.375 C 24.164062 7.375 24.515625 7.542969 24.953125 7.949219 C 25.363281 8.375 25.457031 8.761719 25.453125 9.328125 C 25.453125 9.386719 25.453125 9.445312 25.453125 9.503906 C 25.457031 9.699219 25.457031 9.894531 25.457031 10.089844 C 25.457031 10.230469 25.457031 10.371094 25.457031 10.511719 C 25.457031 10.890625 25.457031 11.273438 25.457031 11.652344 C 25.457031 11.972656 25.460938 12.289062 25.460938 12.605469 C 25.460938 13.3125 25.460938 14.023438 25.460938 14.730469 C 25.460938 14.773438 25.460938 14.8125 25.460938 14.859375 C 25.460938 14.898438 25.460938 14.941406 25.460938 14.988281 C 25.460938 15.675781 25.460938 16.363281 25.464844 17.050781 C 25.464844 17.757812 25.464844 18.464844 25.464844 19.171875 C 25.464844 19.570312 25.464844 19.964844 25.46875 20.363281 C 25.46875 20.734375 25.46875 21.109375 25.46875 21.480469 C 25.46875 21.617188 25.46875 21.753906 25.46875 21.890625 C 25.46875 22.078125 25.46875 22.265625 25.46875 22.453125 C 25.46875 22.507812 25.46875 22.5625 25.46875 22.617188 C 25.464844 23.167969 25.25 23.609375 24.878906 24.011719 C 24.519531 24.324219 24.074219 24.507812 23.601562 24.507812 C 23.542969 24.507812 23.488281 24.507812 23.433594 24.507812 C 23.371094 24.507812 23.3125 24.507812 23.25 24.507812 C 23.1875 24.507812 23.121094 24.507812 23.054688 24.507812 C 22.839844 24.511719 22.625 24.511719 22.410156 24.511719 C 22.253906 24.511719 22.101562 24.511719 21.945312 24.511719 C 21.527344 24.511719 21.105469 24.511719 20.6875 24.511719 C 20.421875 24.511719 20.160156 24.511719 19.898438 24.511719 C 19.171875 24.515625 18.445312 24.515625 17.71875 24.515625 C 17.671875 24.515625 17.625 24.515625 17.578125 24.515625 C 17.53125 24.515625 17.484375 24.515625 17.4375 24.515625 C 17.34375 24.515625 17.25 24.515625 17.15625 24.515625 C 17.109375 24.515625 17.0625 24.515625 17.011719 24.515625 C 16.253906 24.515625 15.496094 24.515625 14.738281 24.519531 C 13.957031 24.519531 13.179688 24.519531 12.398438 24.519531 C 11.960938 24.519531 11.523438 24.519531 11.085938 24.523438 C 10.675781 24.523438 10.265625 24.523438 9.851562 24.523438 C 9.703125 24.523438 9.550781 24.523438 9.398438 24.523438 C 9.195312 24.523438 8.988281 24.523438 8.78125 24.523438 C 8.722656 24.523438 8.660156 24.523438 8.601562 24.523438 C 8.007812 24.519531 7.515625 24.324219 7.0625 23.9375 C 6.667969 23.46875 6.542969 23.023438 6.546875 22.421875 C 6.546875 22.363281 6.546875 22.304688 6.546875 22.246094 C 6.542969 22.050781 6.542969 21.859375 6.542969 21.664062 C 6.542969 21.523438 6.542969 21.386719 6.542969 21.246094 C 6.542969 20.871094 6.542969 20.492188 6.542969 20.117188 C 6.542969 19.878906 6.542969 19.644531 6.539062 19.410156 C 6.539062 18.628906 6.539062 17.847656 6.539062 17.070312 C 6.539062 17.027344 6.539062 16.984375 6.539062 16.941406 C 6.539062 16.898438 6.539062 16.855469 6.539062 16.8125 C 6.539062 16.132812 6.539062 15.449219 6.535156 14.769531 C 6.535156 14.066406 6.535156 13.367188 6.535156 12.667969 C 6.535156 12.273438 6.535156 11.882812 6.53125 11.488281 C 6.53125 11.117188 6.53125 10.75 6.53125 10.378906 C 6.53125 10.242188 6.53125 10.109375 6.53125 9.972656 C 6.53125 9.785156 6.53125 9.601562 6.53125 9.417969 C 6.53125 9.363281 6.53125 9.308594 6.53125 9.253906 C 6.535156 8.695312 6.753906 8.265625 7.128906 7.863281 C 7.511719 7.507812 7.863281 7.371094 8.382812 7.351562 Z M 8.382812 7.351562 "/>
<path style=" stroke:none;fill-rule:nonzero;fill:rgb(24.705882%,15.686275%,40.392157%);fill-opacity:1;" d="M 25.25 8.3125 C 25.542969 8.554688 25.816406 8.808594 26.085938 9.078125 C 26.121094 9.117188 26.160156 9.152344 26.199219 9.191406 C 26.277344 9.269531 26.355469 9.351562 26.4375 9.429688 C 26.5625 9.558594 26.6875 9.683594 26.8125 9.808594 C 27.082031 10.078125 27.347656 10.34375 27.613281 10.613281 C 27.921875 10.925781 28.234375 11.234375 28.542969 11.546875 C 28.667969 11.671875 28.792969 11.796875 28.914062 11.921875 C 28.992188 11.996094 29.066406 12.074219 29.144531 12.148438 C 29.195312 12.199219 29.195312 12.199219 29.246094 12.253906 C 29.417969 12.429688 29.417969 12.429688 29.625 12.5625 C 29.671875 12.730469 29.714844 12.898438 29.75 13.070312 C 29.761719 13.117188 29.769531 13.160156 29.78125 13.207031 C 29.96875 14.0625 30.023438 14.898438 30.019531 15.773438 C 30.019531 15.945312 30.019531 16.117188 30.023438 16.289062 C 30.027344 17.347656 29.898438 18.382812 29.640625 19.414062 C 29.625 19.480469 29.609375 19.546875 29.589844 19.613281 C 29.191406 21.179688 28.5 22.683594 27.5625 24 C 27.515625 24.066406 27.46875 24.132812 27.421875 24.199219 C 26.644531 25.265625 25.738281 26.261719 24.6875 27.0625 C 24.652344 27.089844 24.621094 27.113281 24.585938 27.140625 C 22.125 29.054688 19.125 30.03125 16.023438 30.019531 C 15.964844 30.019531 15.90625 30.019531 15.847656 30.019531 C 15.039062 30.019531 14.238281 30.003906 13.445312 29.839844 C 13.3125 29.808594 13.3125 29.808594 13.167969 29.796875 C 12.886719 29.753906 12.734375 29.699219 12.554688 29.472656 C 12.300781 29.171875 12.027344 28.894531 11.746094 28.617188 C 11.652344 28.523438 11.5625 28.433594 11.46875 28.339844 C 11.269531 28.144531 11.074219 27.945312 10.875 27.75 C 10.644531 27.523438 10.417969 27.292969 10.1875 27.066406 C 10.097656 26.976562 10.003906 26.886719 9.914062 26.792969 C 9.628906 26.511719 9.355469 26.226562 9.09375 25.921875 C 8.957031 25.761719 8.8125 25.617188 8.664062 25.46875 C 8.632812 25.4375 8.605469 25.410156 8.574219 25.378906 C 8.511719 25.316406 8.453125 25.253906 8.390625 25.195312 C 8.296875 25.101562 8.203125 25.007812 8.109375 24.914062 C 8.050781 24.851562 7.988281 24.792969 7.929688 24.734375 C 7.875 24.679688 7.820312 24.625 7.765625 24.570312 C 7.625 24.429688 7.625 24.429688 7.4375 24.3125 C 7.46875 24.25 7.46875 24.25 7.5 24.1875 C 7.558594 24.21875 7.613281 24.246094 7.671875 24.277344 C 7.925781 24.398438 8.121094 24.445312 8.398438 24.445312 C 8.453125 24.445312 8.507812 24.445312 8.566406 24.445312 C 8.625 24.445312 8.6875 24.445312 8.75 24.445312 C 8.84375 24.445312 8.84375 24.445312 8.941406 24.449219 C 9.15625 24.449219 9.371094 24.449219 9.589844 24.449219 C 9.742188 24.449219 9.894531 24.449219 10.050781 24.449219 C 10.511719 24.449219 10.976562 24.453125 11.4375 24.453125 C 11.65625 24.453125 11.875 24.453125 12.09375 24.453125 C 12.820312 24.453125 13.546875 24.457031 14.269531 24.457031 C 14.457031 24.457031 14.648438 24.457031 14.835938 24.457031 C 14.882812 24.457031 14.929688 24.457031 14.976562 24.457031 C 15.734375 24.457031 16.492188 24.457031 17.25 24.460938 C 18.027344 24.460938 18.804688 24.464844 19.582031 24.464844 C 20.019531 24.464844 20.457031 24.464844 20.894531 24.464844 C 21.304688 24.46875 21.714844 24.46875 22.125 24.46875 C 22.277344 24.46875 22.425781 24.46875 22.578125 24.46875 C 22.785156 24.46875 22.988281 24.46875 23.195312 24.46875 C 23.285156 24.46875 23.285156 24.46875 23.375 24.46875 C 23.980469 24.464844 24.515625 24.292969 24.960938 23.871094 C 25.3125 23.460938 25.382812 23.027344 25.382812 22.5 C 25.382812 22.441406 25.382812 22.382812 25.382812 22.324219 C 25.382812 22.125 25.382812 21.929688 25.382812 21.734375 C 25.382812 21.59375 25.382812 21.453125 25.382812 21.3125 C 25.386719 20.929688 25.386719 20.550781 25.386719 20.167969 C 25.386719 19.847656 25.386719 19.53125 25.386719 19.210938 C 25.386719 18.503906 25.386719 17.792969 25.386719 17.085938 C 25.386719 17.042969 25.386719 17 25.386719 16.957031 C 25.386719 16.914062 25.386719 16.871094 25.386719 16.828125 C 25.386719 16.136719 25.386719 15.449219 25.386719 14.757812 C 25.390625 14.050781 25.390625 13.34375 25.390625 12.632812 C 25.390625 12.238281 25.390625 11.839844 25.390625 11.441406 C 25.390625 11.066406 25.390625 10.691406 25.390625 10.320312 C 25.390625 10.179688 25.390625 10.042969 25.390625 9.90625 C 25.390625 9.71875 25.390625 9.53125 25.390625 9.34375 C 25.390625 9.261719 25.390625 9.261719 25.390625 9.179688 C 25.390625 8.867188 25.351562 8.609375 25.25 8.3125 Z M 25.25 8.3125 "/>
<path style=" stroke:none;fill-rule:nonzero;fill:rgb(96.470588%,78.039217%,0%);fill-opacity:1;" d="M 23.625 7.375 C 24.3125 7.453125 24.695312 7.601562 25.125 8.125 C 25.574219 8.703125 25.480469 9.433594 25.476562 10.125 C 25.476562 10.265625 25.476562 10.40625 25.476562 10.546875 C 25.480469 10.925781 25.480469 11.304688 25.476562 11.683594 C 25.476562 12.082031 25.476562 12.480469 25.476562 12.878906 C 25.476562 13.546875 25.476562 14.214844 25.476562 14.882812 C 25.472656 15.566406 25.472656 16.253906 25.472656 16.9375 C 25.476562 17.769531 25.472656 18.597656 25.472656 19.425781 C 25.472656 19.738281 25.472656 20.054688 25.472656 20.371094 C 25.472656 20.742188 25.472656 21.117188 25.472656 21.488281 C 25.472656 21.625 25.472656 21.761719 25.472656 21.894531 C 25.472656 22.082031 25.472656 22.269531 25.46875 22.457031 C 25.46875 22.535156 25.46875 22.535156 25.472656 22.617188 C 25.464844 23.167969 25.25 23.609375 24.878906 24.011719 C 24.519531 24.324219 24.074219 24.507812 23.597656 24.507812 C 23.515625 24.507812 23.515625 24.507812 23.429688 24.507812 C 23.371094 24.507812 23.308594 24.507812 23.246094 24.507812 C 23.183594 24.507812 23.117188 24.507812 23.050781 24.507812 C 22.835938 24.507812 22.617188 24.507812 22.402344 24.507812 C 22.246094 24.507812 22.089844 24.507812 21.933594 24.507812 C 21.601562 24.507812 21.265625 24.507812 20.933594 24.507812 C 20.449219 24.507812 19.964844 24.507812 19.480469 24.503906 C 18.695312 24.503906 17.910156 24.503906 17.128906 24.503906 C 16.363281 24.503906 15.601562 24.503906 14.839844 24.503906 C 14.792969 24.503906 14.746094 24.503906 14.699219 24.503906 C 14.460938 24.503906 14.226562 24.503906 13.992188 24.503906 C 12.035156 24.503906 10.082031 24.5 8.125 24.5 C 8.125 24.480469 8.125 24.457031 8.125 24.4375 C 10.722656 24.4375 13.324219 24.4375 16 24.4375 C 16 23.695312 16 22.953125 16 22.1875 C 16.351562 22.167969 16.703125 22.144531 17.0625 22.125 C 17.375 21.96875 17.375 21.96875 17.5 21.75 C 17.519531 21.609375 17.519531 21.609375 17.519531 21.453125 C 17.519531 21.394531 17.523438 21.332031 17.523438 21.269531 C 17.523438 21.207031 17.523438 21.140625 17.527344 21.074219 C 17.527344 20.976562 17.527344 20.976562 17.53125 20.875 C 17.535156 20.664062 17.535156 20.449219 17.539062 20.238281 C 17.542969 20.09375 17.542969 19.949219 17.546875 19.808594 C 17.550781 19.453125 17.558594 19.101562 17.5625 18.75 C 17.613281 18.75 17.660156 18.746094 17.710938 18.746094 C 17.9375 18.742188 18.160156 18.734375 18.386719 18.726562 C 18.503906 18.722656 18.503906 18.722656 18.621094 18.71875 C 18.699219 18.71875 18.773438 18.714844 18.851562 18.714844 C 18.917969 18.710938 18.988281 18.710938 19.058594 18.707031 C 19.253906 18.6875 19.390625 18.652344 19.5625 18.5625 C 19.734375 18.308594 19.742188 18.113281 19.6875 17.8125 C 19.585938 17.605469 19.449219 17.4375 19.304688 17.257812 C 19.222656 17.152344 19.144531 17.046875 19.0625 16.945312 C 19.019531 16.890625 18.980469 16.839844 18.9375 16.785156 C 18.742188 16.535156 18.558594 16.285156 18.375 16.03125 C 18.300781 15.933594 18.230469 15.835938 18.15625 15.734375 C 18.121094 15.6875 18.085938 15.636719 18.046875 15.585938 C 17.933594 15.433594 17.824219 15.28125 17.710938 15.128906 C 17.652344 15.054688 17.652344 15.054688 17.597656 14.976562 C 17.523438 14.875 17.449219 14.777344 17.375 14.675781 C 17.207031 14.449219 17.042969 14.222656 16.882812 13.988281 C 16.855469 13.945312 16.828125 13.90625 16.800781 13.867188 C 16.726562 13.757812 16.65625 13.652344 16.585938 13.542969 C 16.417969 13.332031 16.417969 13.332031 16 13.1875 C 16 12.300781 16 11.414062 16 10.5 C 18.515625 10.5 21.03125 10.5 23.625 10.5 C 23.625 9.46875 23.625 8.4375 23.625 7.375 Z M 23.625 7.375 "/>
<path style=" stroke:none;fill-rule:nonzero;fill:rgb(53.333336%,35.294119%,93.333334%);fill-opacity:1;" d="M 8.4375 4.1875 C 8.4375 5.238281 8.4375 6.292969 8.4375 7.375 C 8.210938 7.417969 7.984375 7.457031 7.75 7.5 C 7.230469 7.789062 6.875 8.101562 6.664062 8.667969 C 6.597656 8.914062 6.597656 9.152344 6.601562 9.40625 C 6.601562 9.464844 6.601562 9.523438 6.601562 9.582031 C 6.597656 9.777344 6.597656 9.96875 6.601562 10.160156 C 6.597656 10.300781 6.597656 10.4375 6.597656 10.578125 C 6.597656 10.953125 6.597656 11.332031 6.597656 11.707031 C 6.597656 12.023438 6.597656 12.335938 6.597656 12.652344 C 6.597656 13.4375 6.597656 14.21875 6.597656 15.003906 C 6.597656 15.683594 6.597656 16.367188 6.59375 17.046875 C 6.59375 17.746094 6.59375 18.445312 6.59375 19.144531 C 6.59375 19.535156 6.59375 19.929688 6.59375 20.320312 C 6.59375 20.691406 6.59375 21.058594 6.59375 21.429688 C 6.59375 21.5625 6.59375 21.699219 6.59375 21.835938 C 6.59375 22.019531 6.59375 22.203125 6.59375 22.390625 C 6.59375 22.441406 6.59375 22.496094 6.59375 22.550781 C 6.597656 23.113281 6.792969 23.59375 7.1875 24 C 7.253906 24.058594 7.324219 24.117188 7.394531 24.175781 C 7.761719 24.496094 8.105469 24.84375 8.449219 25.191406 C 8.566406 25.308594 8.683594 25.425781 8.800781 25.542969 C 8.878906 25.617188 8.953125 25.695312 9.03125 25.769531 C 9.0625 25.804688 9.097656 25.839844 9.132812 25.875 C 9.308594 26.050781 9.476562 26.230469 9.640625 26.421875 C 9.925781 26.75 10.238281 27.058594 10.546875 27.367188 C 10.609375 27.429688 10.675781 27.492188 10.738281 27.554688 C 10.90625 27.722656 11.070312 27.886719 11.238281 28.054688 C 11.410156 28.222656 11.578125 28.394531 11.75 28.566406 C 12.082031 28.898438 12.417969 29.230469 12.75 29.5625 C 12.535156 29.621094 12.417969 29.617188 12.203125 29.554688 C 12.117188 29.53125 12.117188 29.53125 12.03125 29.503906 C 11.96875 29.484375 11.90625 29.464844 11.84375 29.445312 C 11.78125 29.425781 11.714844 29.40625 11.648438 29.386719 C 11.011719 29.183594 10.410156 28.921875 9.8125 28.625 C 9.765625 28.601562 9.71875 28.578125 9.671875 28.554688 C 8.375 27.910156 7.230469 27.0625 6.1875 26.0625 C 6.15625 26.03125 6.125 26.003906 6.09375 25.972656 C 5.59375 25.5 5.160156 24.988281 4.75 24.4375 C 4.710938 24.386719 4.710938 24.386719 4.667969 24.332031 C 4.214844 23.734375 3.84375 23.101562 3.5 22.4375 C 3.464844 22.367188 3.464844 22.367188 3.425781 22.296875 C 2.417969 20.339844 1.972656 18.210938 1.980469 16.019531 C 1.980469 15.960938 1.980469 15.902344 1.980469 15.84375 C 1.984375 15.007812 2.007812 14.195312 2.1875 13.375 C 2.199219 13.3125 2.214844 13.253906 2.226562 13.191406 C 2.722656 10.839844 3.738281 8.695312 5.3125 6.875 C 5.359375 6.816406 5.410156 6.761719 5.460938 6.703125 C 5.59375 6.546875 5.734375 6.398438 5.875 6.25 C 5.902344 6.21875 5.933594 6.1875 5.964844 6.15625 C 7.835938 4.1875 7.835938 4.1875 8.4375 4.1875 Z M 8.4375 4.1875 "/>
<path style=" stroke:none;fill-rule:nonzero;fill:rgb(87.843138%,17.254902%,41.960785%);fill-opacity:1;" d="M 16.1875 13.1875 C 16.515625 13.332031 16.671875 13.589844 16.871094 13.875 C 16.941406 13.976562 17.015625 14.078125 17.085938 14.183594 C 17.144531 14.261719 17.144531 14.261719 17.199219 14.339844 C 17.378906 14.59375 17.5625 14.839844 17.746094 15.089844 C 17.820312 15.1875 17.894531 15.289062 17.964844 15.386719 C 18.003906 15.4375 18.039062 15.484375 18.078125 15.535156 C 18.1875 15.6875 18.300781 15.839844 18.414062 15.992188 C 18.46875 16.070312 18.46875 16.070312 18.527344 16.144531 C 18.597656 16.246094 18.671875 16.347656 18.746094 16.445312 C 18.917969 16.679688 19.089844 16.910156 19.269531 17.136719 C 19.300781 17.179688 19.335938 17.222656 19.367188 17.265625 C 19.425781 17.339844 19.488281 17.414062 19.550781 17.488281 C 19.746094 17.746094 19.78125 17.9375 19.773438 18.25 C 19.734375 18.464844 19.609375 18.5625 19.4375 18.6875 C 19.230469 18.757812 19.078125 18.757812 18.863281 18.757812 C 18.75 18.753906 18.75 18.753906 18.632812 18.753906 C 18.515625 18.753906 18.515625 18.753906 18.394531 18.753906 C 18.273438 18.753906 18.273438 18.753906 18.152344 18.753906 C 17.957031 18.753906 17.757812 18.75 17.5625 18.75 C 17.5625 18.785156 17.5625 18.824219 17.566406 18.863281 C 17.570312 19.246094 17.578125 19.628906 17.578125 20.011719 C 17.582031 20.152344 17.582031 20.296875 17.585938 20.441406 C 17.589844 20.644531 17.589844 20.851562 17.59375 21.058594 C 17.59375 21.121094 17.597656 21.183594 17.597656 21.25 C 17.597656 21.746094 17.597656 21.746094 17.417969 21.976562 C 17.066406 22.289062 16.578125 22.207031 16.132812 22.210938 C 16.03125 22.210938 15.929688 22.210938 15.828125 22.214844 C 15.679688 22.21875 15.53125 22.21875 15.382812 22.21875 C 15.339844 22.222656 15.292969 22.222656 15.246094 22.222656 C 15 22.222656 14.847656 22.1875 14.660156 22.035156 C 14.453125 21.828125 14.429688 21.742188 14.429688 21.460938 C 14.429688 21.398438 14.429688 21.339844 14.429688 21.277344 C 14.429688 21.214844 14.429688 21.148438 14.429688 21.082031 C 14.429688 21.015625 14.429688 20.949219 14.433594 20.878906 C 14.433594 20.667969 14.433594 20.453125 14.433594 20.242188 C 14.433594 20.097656 14.433594 19.953125 14.433594 19.808594 C 14.433594 19.457031 14.4375 19.101562 14.4375 18.75 C 14.386719 18.75 14.335938 18.753906 14.28125 18.753906 C 14.050781 18.761719 13.816406 18.765625 13.585938 18.769531 C 13.503906 18.773438 13.425781 18.773438 13.34375 18.777344 C 12.675781 18.785156 12.675781 18.785156 12.449219 18.601562 C 12.261719 18.378906 12.222656 18.242188 12.226562 17.949219 C 12.269531 17.703125 12.414062 17.542969 12.570312 17.355469 C 12.640625 17.269531 12.710938 17.179688 12.777344 17.09375 C 12.816406 17.046875 12.851562 17 12.890625 16.953125 C 13.074219 16.71875 13.253906 16.472656 13.429688 16.230469 C 13.503906 16.128906 13.578125 16.03125 13.652344 15.929688 C 13.726562 15.828125 13.800781 15.726562 13.875 15.625 C 14.132812 15.277344 14.386719 14.929688 14.644531 14.582031 C 14.75 14.4375 14.855469 14.292969 14.960938 14.148438 C 15.027344 14.058594 15.09375 13.96875 15.160156 13.878906 C 15.191406 13.835938 15.21875 13.796875 15.25 13.753906 C 15.503906 13.410156 15.722656 13.121094 16.1875 13.1875 Z M 16.1875 13.1875 "/>
<path style=" stroke:none;fill-rule:nonzero;fill:rgb(72.549021%,98.431373%,94.901961%);fill-opacity:1;" d="M 10.5 2.742188 C 10.558594 2.742188 10.617188 2.742188 10.675781 2.742188 C 10.886719 2.742188 11.101562 2.746094 11.3125 2.75 C 11.449219 2.75 11.582031 2.753906 11.71875 2.753906 C 12.394531 2.761719 13.066406 2.773438 13.742188 2.78125 C 14.488281 2.792969 15.230469 2.800781 16 2.8125 C 16 4.546875 16 6.277344 16 8.0625 C 13.4375 8.0625 13.4375 8.0625 12.75 7.4375 C 12.511719 7.347656 12.511719 7.347656 12.277344 7.359375 C 12.210938 7.359375 12.210938 7.359375 12.148438 7.359375 C 12.011719 7.355469 11.875 7.359375 11.738281 7.363281 C 11.644531 7.363281 11.546875 7.363281 11.453125 7.359375 C 11.203125 7.359375 10.953125 7.363281 10.703125 7.367188 C 10.449219 7.367188 10.191406 7.367188 9.9375 7.367188 C 9.4375 7.367188 8.9375 7.371094 8.4375 7.375 C 8.429688 6.914062 8.425781 6.449219 8.421875 5.988281 C 8.421875 5.828125 8.421875 5.671875 8.417969 5.515625 C 8.414062 5.289062 8.414062 5.0625 8.414062 4.835938 C 8.410156 4.765625 8.410156 4.695312 8.410156 4.625 C 8.410156 4.019531 8.574219 3.625 9 3.1875 C 9.472656 2.828125 9.917969 2.730469 10.5 2.742188 Z M 10.5 2.742188 "/>
<path style=" stroke:none;fill-rule:nonzero;fill:rgb(91.37255%,36.470589%,57.647061%);fill-opacity:1;" d="M 16.1875 13.1875 C 16.125 13.207031 16.0625 13.230469 16 13.25 C 16 16.199219 16 19.148438 16 22.1875 C 14.875 22.1875 14.875 22.1875 14.5 21.875 C 14.425781 21.722656 14.429688 21.628906 14.429688 21.460938 C 14.429688 21.398438 14.429688 21.339844 14.429688 21.277344 C 14.429688 21.214844 14.429688 21.148438 14.429688 21.082031 C 14.429688 21.015625 14.429688 20.949219 14.433594 20.878906 C 14.433594 20.667969 14.433594 20.453125 14.433594 20.242188 C 14.433594 20.097656 14.433594 19.953125 14.433594 19.808594 C 14.433594 19.457031 14.4375 19.101562 14.4375 18.75 C 14.386719 18.75 14.335938 18.753906 14.28125 18.753906 C 14.050781 18.761719 13.816406 18.765625 13.585938 18.769531 C 13.503906 18.773438 13.425781 18.773438 13.34375 18.777344 C 12.675781 18.785156 12.675781 18.785156 12.449219 18.601562 C 12.261719 18.378906 12.222656 18.242188 12.226562 17.949219 C 12.269531 17.703125 12.414062 17.542969 12.570312 17.355469 C 12.640625 17.269531 12.710938 17.179688 12.777344 17.09375 C 12.816406 17.046875 12.851562 17 12.890625 16.953125 C 13.074219 16.71875 13.253906 16.472656 13.429688 16.230469 C 13.503906 16.128906 13.578125 16.03125 13.652344 15.929688 C 13.726562 15.828125 13.800781 15.726562 13.875 15.625 C 14.132812 15.277344 14.386719 14.929688 14.644531 14.582031 C 14.75 14.4375 14.855469 14.292969 14.960938 14.148438 C 15.027344 14.058594 15.09375 13.96875 15.160156 13.878906 C 15.191406 13.835938 15.21875 13.796875 15.25 13.753906 C 15.511719 13.402344 15.714844 13.144531 16.1875 13.1875 Z M 16.1875 13.1875 "/>
<path style=" stroke:none;fill-rule:nonzero;fill:rgb(52.941179%,34.901962%,93.333334%);fill-opacity:1;" d="M 23.5625 4.1875 C 23.957031 4.40625 24.28125 4.605469 24.621094 4.890625 C 24.664062 4.925781 24.707031 4.960938 24.753906 5 C 25.09375 5.28125 25.429688 5.570312 25.75 5.875 C 25.78125 5.902344 25.8125 5.933594 25.84375 5.964844 C 26.367188 6.460938 26.820312 6.984375 27.25 7.5625 C 27.277344 7.597656 27.304688 7.632812 27.332031 7.667969 C 27.785156 8.265625 28.15625 8.898438 28.5 9.5625 C 28.523438 9.609375 28.550781 9.65625 28.574219 9.703125 C 29.035156 10.597656 29.441406 11.570312 29.625 12.5625 C 29.355469 12.457031 29.175781 12.257812 28.980469 12.054688 C 28.941406 12.015625 28.898438 11.976562 28.859375 11.9375 C 28.730469 11.808594 28.601562 11.675781 28.472656 11.546875 C 28.382812 11.457031 28.292969 11.367188 28.203125 11.277344 C 27.964844 11.039062 27.730469 10.800781 27.492188 10.5625 C 27.253906 10.324219 27.011719 10.082031 26.773438 9.839844 C 26.382812 9.449219 25.996094 9.0625 25.605469 8.671875 C 24.753906 7.78125 24.753906 7.78125 23.625 7.375 C 23.605469 6.324219 23.582031 5.269531 23.5625 4.1875 Z M 23.5625 4.1875 "/>
<path style=" stroke:none;fill-rule:nonzero;fill:rgb(24.705882%,15.686275%,40.392157%);fill-opacity:1;" d="M 16 8.125 C 16.664062 8.117188 17.324219 8.113281 17.988281 8.109375 C 18.296875 8.105469 18.605469 8.105469 18.910156 8.101562 C 19.207031 8.097656 19.503906 8.097656 19.804688 8.09375 C 19.917969 8.09375 20.03125 8.09375 20.144531 8.09375 C 20.300781 8.089844 20.460938 8.089844 20.617188 8.089844 C 20.664062 8.089844 20.710938 8.085938 20.761719 8.085938 C 21.007812 8.089844 21.113281 8.117188 21.3125 8.273438 C 21.4375 8.4375 21.4375 8.4375 21.464844 8.628906 C 21.4375 8.804688 21.414062 8.914062 21.3125 9.0625 C 21.078125 9.21875 20.902344 9.203125 20.632812 9.203125 C 20.558594 9.203125 20.558594 9.203125 20.480469 9.203125 C 20.316406 9.203125 20.152344 9.199219 19.984375 9.199219 C 19.871094 9.199219 19.757812 9.199219 19.640625 9.199219 C 19.339844 9.199219 19.039062 9.199219 18.738281 9.195312 C 18.429688 9.195312 18.121094 9.195312 17.8125 9.195312 C 17.207031 9.191406 16.605469 9.191406 16 9.1875 C 16 8.835938 16 8.484375 16 8.125 Z M 16 8.125 "/>
<path style=" stroke:none;fill-rule:nonzero;fill:rgb(96.862745%,62.352943%,0%);fill-opacity:1;" d="M 23.625 7.375 C 24.308594 7.449219 24.699219 7.601562 25.125 8.125 C 25.421875 8.578125 25.480469 8.960938 25.46875 9.496094 C 25.46875 9.5625 25.46875 9.632812 25.464844 9.703125 C 25.464844 9.917969 25.460938 10.136719 25.457031 10.351562 C 25.457031 10.5 25.453125 10.648438 25.453125 10.792969 C 25.449219 11.15625 25.445312 11.515625 25.4375 11.875 C 25.3125 11.6875 25.3125 11.6875 25.238281 11.546875 C 24.964844 11.035156 24.609375 10.75 24.0625 10.5625 C 23.917969 10.542969 23.773438 10.519531 23.625 10.5 C 23.625 9.46875 23.625 8.4375 23.625 7.375 Z M 23.625 7.375 "/>
<path style=" stroke:none;fill-rule:nonzero;fill:rgb(53.333336%,34.901962%,93.725491%);fill-opacity:1;" d="M 15.257812 1.984375 C 15.335938 1.984375 15.335938 1.984375 15.417969 1.984375 C 17.21875 1.964844 18.832031 2.152344 20.5625 2.6875 C 20.5625 2.707031 20.5625 2.730469 20.5625 2.75 C 17.550781 2.75 14.539062 2.75 11.4375 2.75 C 11.613281 2.632812 11.722656 2.589844 11.921875 2.539062 C 11.980469 2.523438 12.039062 2.507812 12.097656 2.488281 C 12.191406 2.464844 12.191406 2.464844 12.289062 2.441406 C 12.386719 2.417969 12.386719 2.417969 12.484375 2.390625 C 13.394531 2.160156 14.316406 1.996094 15.257812 1.984375 Z M 15.257812 1.984375 "/>
<path style=" stroke:none;fill-rule:nonzero;fill:rgb(24.705882%,16.078432%,40.392157%);fill-opacity:1;" d="M 18.507812 4.957031 C 18.617188 4.957031 18.617188 4.957031 18.730469 4.957031 C 18.886719 4.957031 19.042969 4.957031 19.199219 4.960938 C 19.4375 4.960938 19.675781 4.960938 19.914062 4.957031 C 20.066406 4.957031 20.214844 4.957031 20.367188 4.957031 C 20.472656 4.957031 20.472656 4.957031 20.582031 4.957031 C 21.074219 4.964844 21.074219 4.964844 21.328125 5.148438 C 21.4375 5.3125 21.4375 5.3125 21.476562 5.496094 C 21.425781 5.75 21.335938 5.914062 21.125 6.0625 C 20.871094 6.117188 20.625 6.113281 20.363281 6.109375 C 20.292969 6.109375 20.21875 6.109375 20.140625 6.109375 C 19.984375 6.109375 19.828125 6.105469 19.671875 6.105469 C 19.433594 6.101562 19.195312 6.101562 18.957031 6.101562 C 18.804688 6.101562 18.652344 6.101562 18.5 6.101562 C 18.394531 6.101562 18.394531 6.101562 18.285156 6.101562 C 18.21875 6.097656 18.152344 6.097656 18.082031 6.097656 C 18.023438 6.097656 17.964844 6.09375 17.90625 6.09375 C 17.703125 6.054688 17.628906 5.96875 17.5 5.8125 C 17.410156 5.632812 17.414062 5.511719 17.4375 5.3125 C 17.707031 4.90625 18.0625 4.953125 18.507812 4.957031 Z M 18.507812 4.957031 "/>
<path style=" stroke:none;fill-rule:nonzero;fill:rgb(50.196081%,45.490196%,79.215688%);fill-opacity:1;" d="M 13.5 8.0625 C 15.976562 8.0625 18.449219 8.0625 21 8.0625 C 21 8.082031 21 8.105469 21 8.125 C 19.351562 8.125 17.699219 8.125 16 8.125 C 16 8.476562 16 8.828125 16 9.1875 C 17.648438 9.1875 19.300781 9.1875 21 9.1875 C 21 9.207031 21 9.230469 21 9.25 C 20.191406 9.269531 19.386719 9.285156 18.578125 9.296875 C 18.203125 9.300781 17.828125 9.304688 17.457031 9.316406 C 17.09375 9.324219 16.730469 9.332031 16.367188 9.332031 C 16.230469 9.335938 16.09375 9.335938 15.957031 9.34375 C 14.769531 9.382812 14.769531 9.382812 14.265625 8.945312 C 14.078125 8.765625 13.910156 8.578125 13.75 8.375 C 13.667969 8.273438 13.585938 8.167969 13.5 8.0625 Z M 13.5 8.0625 "/>
<path style=" stroke:none;fill-rule:nonzero;fill:rgb(72.549021%,98.431373%,94.509804%);fill-opacity:1;" d="M 14.75 9.25 C 15.164062 9.25 15.574219 9.25 16 9.25 C 16 9.640625 16 10.035156 16 10.4375 C 15.667969 10.207031 15.378906 9.953125 15.09375 9.667969 C 15.058594 9.632812 15.027344 9.601562 14.992188 9.566406 C 14.75 9.320312 14.75 9.320312 14.75 9.25 Z M 14.75 9.25 "/>
</g>
</svg>
